<svg width="42" height="42" viewBox="0 0 42 42" fill="none" xmlns="http://www.w3.org/2000/svg">
<g clip-path="url(#clip0_170_1154)">
<path d="M21 3.5C11.34 3.5 3.5 11.34 3.5 21C3.5 30.66 11.34 38.5 21 38.5H29.75V35H21C13.405 35 7 28.595 7 21C7 13.405 13.405 7 21 7C28.595 7 35 13.405 35 21V23.5025C35 24.885 33.7575 26.25 32.375 26.25C30.9925 26.25 29.75 24.885 29.75 23.5025V21C29.75 16.17 25.83 12.25 21 12.25C16.17 12.25 12.25 16.17 12.25 21C12.25 25.83 16.17 29.75 21 29.75C23.415 29.75 25.62 28.77 27.195 27.1775C28.3325 28.735 30.2925 29.75 32.375 29.75C35.8225 29.75 38.5 26.95 38.5 23.5025V21C38.5 11.34 30.66 3.5 21 3.5ZM21 26.25C18.095 26.25 15.75 23.905 15.75 21C15.75 18.095 18.095 15.75 21 15.75C23.905 15.75 26.25 18.095 26.25 21C26.25 23.905 23.905 26.25 21 26.25Z" fill="white"/>
</g>
<defs>
<clipPath id="clip0_170_1154">
<rect width="42" height="42" fill="white"/>
</clipPath>
</defs>
</svg>
