<svg width="59" height="59" viewBox="0 0 59 59" fill="none" xmlns="http://www.w3.org/2000/svg">
<path d="M29.5 59C37.3239 59 44.8273 55.892 50.3596 50.3596C55.892 44.8273 59 37.3239 59 29.5C59 21.6761 55.892 14.1727 50.3596 8.64035C44.8273 3.10803 37.3239 0 29.5 0C21.6761 0 14.1727 3.10803 8.64035 8.64035C3.10803 14.1727 0 21.6761 0 29.5C0 37.3239 3.10803 44.8273 8.64035 50.3596C14.1727 55.892 21.6761 59 29.5 59ZM25.8125 23.9688C25.8125 27.022 24.1605 29.5 22.125 29.5C20.0895 29.5 18.4375 27.022 18.4375 23.9688C18.4375 20.9155 20.0895 18.4375 22.125 18.4375C24.1605 18.4375 25.8125 20.9155 25.8125 23.9688ZM15.8009 35.2783C16.2244 35.0338 16.7277 34.9676 17.2 35.0941C17.6723 35.2207 18.075 35.5297 18.3195 35.9531C19.452 37.9161 21.0816 39.5461 23.0444 40.679C25.0072 41.8118 27.2338 42.4076 29.5 42.4062C31.7662 42.4076 33.9928 41.8118 35.9556 40.679C37.9184 39.5461 39.548 37.9161 40.6805 35.9531C40.8007 35.7417 40.9615 35.5562 41.1537 35.4072C41.3458 35.2583 41.5656 35.1488 41.8002 35.0851C42.0349 35.0214 42.2798 35.0047 42.521 35.036C42.7621 35.0674 42.9946 35.1461 43.2052 35.2677C43.4158 35.3893 43.6002 35.5513 43.7479 35.7444C43.8956 35.9376 44.0037 36.1581 44.0658 36.3931C44.128 36.6282 44.143 36.8733 44.1101 37.1142C44.0771 37.3551 43.9968 37.5871 43.8739 37.7969C42.4178 40.3204 40.3226 42.4159 37.7993 43.8724C35.276 45.3289 32.4135 46.0951 29.5 46.0938C26.5865 46.0951 23.724 45.3289 21.2007 43.8724C18.6774 42.4159 16.5822 40.3204 15.1261 37.7969C14.8816 37.3734 14.8154 36.8702 14.9419 36.3978C15.0685 35.9255 15.3775 35.5228 15.8009 35.2783ZM36.875 29.5C34.8395 29.5 33.1875 27.022 33.1875 23.9688C33.1875 20.9155 34.8395 18.4375 36.875 18.4375C38.9105 18.4375 40.5625 20.9155 40.5625 23.9688C40.5625 27.022 38.9105 29.5 36.875 29.5Z" fill="black"/>
</svg>
