<svg width="42" height="42" viewBox="0 0 42 42" fill="none" xmlns="http://www.w3.org/2000/svg">
<g clip-path="url(#clip0_170_1151)">
<path d="M21 3.5C14.2275 3.5 8.75 8.9775 8.75 15.75C8.75 18.795 9.625 21.6475 11.2175 24.22C12.88 26.915 15.0675 29.225 16.7475 31.92C17.57 33.2325 18.165 34.4575 18.795 35.875C19.25 36.8375 19.6175 38.5 21 38.5C22.3825 38.5 22.75 36.8375 23.1875 35.875C23.835 34.4575 24.4125 33.2325 25.235 31.92C26.915 29.2425 29.1025 26.9325 30.765 24.22C32.375 21.6475 33.25 18.795 33.25 15.75C33.25 8.9775 27.7725 3.5 21 3.5ZM21 20.5625C18.585 20.5625 16.625 18.6025 16.625 16.1875C16.625 13.7725 18.585 11.8125 21 11.8125C23.415 11.8125 25.375 13.7725 25.375 16.1875C25.375 18.6025 23.415 20.5625 21 20.5625Z" fill="white"/>
</g>
<defs>
<clipPath id="clip0_170_1151">
<rect width="42" height="42" fill="white"/>
</clipPath>
</defs>
</svg>
