<svg width="65" height="65" viewBox="0 0 65 65" fill="none" xmlns="http://www.w3.org/2000/svg">
<path d="M32.4998 0.416504C14.7898 0.416504 0.416504 14.7898 0.416504 32.4998C0.416504 50.2098 14.7898 64.5832 32.4998 64.5832C50.2098 64.5832 64.5832 50.2098 64.5832 32.4998C64.5832 14.7898 50.2098 0.416504 32.4998 0.416504ZM32.4998 10.0415C37.8257 10.0415 42.1248 14.3407 42.1248 19.6665C42.1248 24.9923 37.8257 29.2915 32.4998 29.2915C27.174 29.2915 22.8748 24.9923 22.8748 19.6665C22.8748 14.3407 27.174 10.0415 32.4998 10.0415ZM32.4998 55.5998C24.479 55.5998 17.3886 51.4932 13.2498 45.269C13.3461 38.8844 26.0832 35.3873 32.4998 35.3873C38.8844 35.3873 51.6536 38.8844 51.7498 45.269C47.6111 51.4932 40.5207 55.5998 32.4998 55.5998Z" fill="black"/>
</svg>
