<svg width="42" height="42" viewBox="0 0 42 42" fill="none" xmlns="http://www.w3.org/2000/svg">
<g clip-path="url(#clip0_170_1148)">
<path d="M11.585 18.8825C14.105 23.835 18.165 27.8775 23.1175 30.415L26.9675 26.565C27.44 26.0925 28.14 25.935 28.7525 26.145C30.7125 26.7925 32.83 27.1425 35 27.1425C35.9625 27.1425 36.75 27.93 36.75 28.8925V35C36.75 35.9625 35.9625 36.75 35 36.75C18.5675 36.75 5.25 23.4325 5.25 7C5.25 6.0375 6.0375 5.25 7 5.25H13.125C14.0875 5.25 14.875 6.0375 14.875 7C14.875 9.1875 15.225 11.2875 15.8725 13.2475C16.065 13.86 15.925 14.5425 15.435 15.0325L11.585 18.8825Z" fill="white"/>
</g>
<defs>
<clipPath id="clip0_170_1148">
<rect width="42" height="42" fill="white"/>
</clipPath>
</defs>
</svg>
