<svg width="16" height="16" viewBox="0 0 16 16" fill="none" xmlns="http://www.w3.org/2000/svg">
<path d="M11.3333 14.5454H4.66667C4.29867 14.5454 4 14.8712 4 15.2726C4 15.6741 4.29867 15.9999 4.66667 15.9999H11.3333C11.7013 15.9999 12 15.6741 12 15.2726C12 14.8712 11.7013 14.5454 11.3333 14.5454Z" fill="#21695C"/>
<path fill-rule="evenodd" clip-rule="evenodd" d="M0.666667 0H15.3333C15.7013 0 16 0.325818 16 0.727273V12.3636C16 12.7651 15.7013 13.0909 15.3333 13.0909H0.666667C0.298667 13.0909 0 12.7651 0 12.3636V0.727273C0 0.325818 0.298667 0 0.666667 0ZM1.33334 11.6364H14.6667V1.45455H1.33334V11.6364Z" fill="#21695C"/>
</svg>
