<svg width="16" height="16" viewBox="0 0 16 16" fill="none" xmlns="http://www.w3.org/2000/svg">
<path fill-rule="evenodd" clip-rule="evenodd" d="M3.6129 4.00493C3.6129 1.79307 5.57707 0 8 0C10.4229 0 12.3871 1.79307 12.3871 4.00493C12.3871 6.2168 10.4229 8.00987 8 8.00987C5.57707 8.00987 3.6129 6.2168 3.6129 4.00493ZM8 1.41351C6.43222 1.41351 5.16129 2.57373 5.16129 4.00493C5.16129 5.43614 6.43222 6.59636 8 6.59636C9.56778 6.59636 10.8387 5.43614 10.8387 4.00493C10.8387 2.57373 9.56778 1.41351 8 1.41351Z" fill="#21695C"/>
<path fill-rule="evenodd" clip-rule="evenodd" d="M3.87097 10.8369C2.58824 10.8369 1.54839 11.7862 1.54839 12.9571V14.0769C1.54839 14.094 1.56192 14.1085 1.58036 14.1112C5.83197 14.7449 10.168 14.7449 14.4196 14.1112C14.4381 14.1085 14.4516 14.094 14.4516 14.0769V12.9571C14.4516 11.7862 13.4118 10.8369 12.129 10.8369H11.7772C11.75 10.8369 11.7229 10.8408 11.6971 10.8485L10.8036 11.1148C8.98187 11.6579 7.01813 11.6579 5.19637 11.1148L4.30294 10.8485C4.27707 10.8408 4.25004 10.8369 4.22283 10.8369H3.87097ZM0 12.9571C0 11.0055 1.73309 9.42337 3.87097 9.42337H4.22283C4.41328 9.42337 4.60252 9.45087 4.78356 9.50483L5.67699 9.77115C7.18645 10.2211 8.81355 10.2211 10.323 9.77115L11.2164 9.50483C11.3975 9.45087 11.5867 9.42337 11.7772 9.42337H12.129C14.2669 9.42337 16 11.0055 16 12.9571V14.0769C16 14.7867 15.4365 15.3919 14.6691 15.5063C10.2523 16.1646 5.74771 16.1646 1.33086 15.5063C0.563493 15.3919 0 14.7867 0 14.0769V12.9571Z" fill="#21695C"/>
</svg>
