<svg width="16" height="16" viewBox="0 0 16 16" fill="none" xmlns="http://www.w3.org/2000/svg">
<path fill-rule="evenodd" clip-rule="evenodd" d="M8.96697 0.227616C8.38828 -0.0726335 7.60412 -0.0772664 7.02081 0.22221C4.78495 1.37012 2.75697 2.68628 0.97983 4.14609C0.705014 4.37184 0.509983 4.69987 0.513311 5.08599C0.516625 5.47053 0.715625 5.79418 0.988771 6.0162C2.75115 7.44873 4.78079 8.76608 6.97572 9.9049C7.55442 10.2051 8.33857 10.2098 8.92188 9.9103C11.1577 8.7624 13.1857 7.44623 14.9629 5.98642C15.2377 5.76068 15.4327 5.43264 15.4294 5.04652C15.4261 4.66199 15.2271 4.33833 14.9539 4.11631C13.1915 2.68379 11.1619 1.36643 8.96697 0.227616ZM7.61432 1.36464C7.82098 1.25854 8.16045 1.25955 8.36852 1.3675C10.4633 2.45435 12.3934 3.70474 14.0656 5.05531C12.3834 6.42761 10.459 7.67397 8.32837 8.76787C8.12171 8.87397 7.78224 8.87297 7.57418 8.76502C5.47941 7.67816 3.54927 6.42777 1.87711 5.0772C3.55925 3.7049 5.48365 2.45854 7.61432 1.36464Z" fill="#21695C"/>
<path d="M15.9018 8.2319C16.0909 8.53309 15.9987 8.92968 15.6957 9.11772L10.4295 12.3861C9.71492 12.8296 8.82832 13.0347 7.97127 13.0347C7.11422 13.0348 6.22758 12.8298 5.51286 12.3864L0.304399 9.155C0.00139705 8.96701 -0.0909367 8.57043 0.0981655 8.26922C0.287268 7.96801 0.686196 7.87622 0.989198 8.0642L6.19766 11.2956C6.66687 11.5867 7.30427 11.749 7.97119 11.7489C8.63813 11.7489 9.27545 11.5866 9.74456 11.2954L15.0107 8.02703C15.3137 7.839 15.7126 7.93072 15.9018 8.2319Z" fill="#21695C"/>
<path d="M15.9017 11.4504C16.0909 11.7515 15.9987 12.1481 15.6958 12.3362L11.1352 15.1674C10.2233 15.7336 9.08246 15.9999 7.97123 16C6.86 16.0001 5.71916 15.7338 4.80705 15.1678L0.304333 12.3735C0.00135377 12.1855 -0.090932 11.7889 0.0982065 11.4877C0.287345 11.1865 0.686285 11.0948 0.989264 11.2828L5.49198 14.0771C6.15854 14.4907 7.05007 14.7143 7.97116 14.7142C8.89225 14.7142 9.7837 14.4905 10.4501 14.0768L15.0106 11.2456C15.3136 11.0575 15.7126 11.1492 15.9017 11.4504Z" fill="#21695C"/>
</svg>
