<svg width="16" height="16" viewBox="0 0 16 16" fill="none" xmlns="http://www.w3.org/2000/svg">
<path d="M11.871 8.82051C11.871 8.48065 11.5243 8.20513 11.0968 8.20513H4.90323C4.47565 8.20513 4.12903 8.48065 4.12903 8.82051C4.12903 9.16038 4.47565 9.4359 4.90323 9.4359H11.0968C11.5243 9.4359 11.871 9.16038 11.871 8.82051Z" fill="#21695C"/>
<path d="M11.871 12.1026C11.871 11.7627 11.5243 11.4872 11.0968 11.4872H4.90323C4.47565 11.4872 4.12903 11.7627 4.12903 12.1026C4.12903 12.4424 4.47565 12.7179 4.90323 12.7179H11.0968C11.5243 12.7179 11.871 12.4424 11.871 12.1026Z" fill="#21695C"/>
<path fill-rule="evenodd" clip-rule="evenodd" d="M2.83871 0C1.27093 0 0 1.01023 0 2.25641V13.7436C0 14.9898 1.27093 16 2.83871 16H13.1613C14.7291 16 16 14.9898 16 13.7436V4.69141C16 4.37898 15.8718 4.07508 15.6349 3.8258L12.5404 0.570291C12.199 0.211116 11.6654 0 11.0991 0H2.83871ZM1.54839 2.25641C1.54839 1.68996 2.12608 1.23077 2.83871 1.23077H10.3226V4.8386C10.3226 5.17847 10.6692 5.45399 11.0968 5.45399H14.4516V13.7436C14.4516 14.31 13.8739 14.7692 13.1613 14.7692H2.83871C2.12608 14.7692 1.54839 14.31 1.54839 13.7436V2.25641Z" fill="#21695C"/>
</svg>
