<svg width="16" height="16" viewBox="0 0 16 16" fill="none" xmlns="http://www.w3.org/2000/svg">
<path fill-rule="evenodd" clip-rule="evenodd" d="M3.53586 0C3.90568 0 4.20548 0.311109 4.20548 0.694881V2.23995C6.73018 2.00663 9.26987 2.00663 11.7946 2.23996V0.694881C11.7946 0.311109 12.0944 0 12.4642 0C12.834 0 13.1338 0.311109 13.1338 0.694881V2.37782C14.4669 2.57342 15.52 3.66755 15.6983 5.06321L15.7755 5.66818C16.1006 8.21268 16.0725 10.7924 15.6922 13.3286C15.5038 14.585 14.5202 15.55 13.3008 15.6748L12.2356 15.7838C9.41871 16.0721 6.58129 16.0721 3.76436 15.7838L2.6992 15.6748C1.47982 15.55 0.496226 14.585 0.307829 13.3286C-0.0724807 10.7924 -0.100552 8.21268 0.224471 5.66818L0.301747 5.06322C0.480025 3.66754 1.53317 2.57339 2.86623 2.37781V0.694881C2.86623 0.311109 3.16603 0 3.53586 0ZM3.93332 3.66231C6.63788 3.38553 9.36212 3.38553 12.0667 3.66231L12.8751 3.74504C13.649 3.82423 14.2684 4.44589 14.3706 5.24583L14.4479 5.8508C14.4749 6.06215 14.4993 6.27375 14.5212 6.48556H1.47883C1.50068 6.27375 1.52511 6.06215 1.55211 5.8508L1.62938 5.24584C1.73157 4.44589 2.35104 3.82423 3.1249 3.74504L3.93332 3.66231ZM1.37237 7.87532C1.28471 9.62464 1.37108 11.3805 1.63115 13.1149C1.72565 13.7451 2.21901 14.2291 2.83064 14.2917L3.89579 14.4007C6.62531 14.6801 9.37469 14.6801 12.1042 14.4007L13.1694 14.2917C13.781 14.2291 14.2743 13.7451 14.3688 13.1149C14.6289 11.3805 14.7153 9.62464 14.6276 7.87532H1.37237Z" fill="#21695C"/>
</svg>
