<svg width="16" height="16" viewBox="0 0 16 16" fill="none" xmlns="http://www.w3.org/2000/svg">
<path d="M4.41248 5.67931C3.77118 5.67931 3.2513 6.30373 3.2513 7.074C3.2513 7.84426 3.77118 8.46868 4.41248 8.46868C5.05378 8.46868 5.57366 7.84426 5.57366 7.074C5.57366 6.30373 5.05378 5.67931 4.41248 5.67931Z" fill="#21695C"/>
<path d="M8.12825 5.67931C7.48695 5.67931 6.96707 6.30373 6.96707 7.074C6.96707 7.84426 7.48695 8.46868 8.12825 8.46868C8.76955 8.46868 9.28943 7.84426 9.28943 7.074C9.28943 6.30373 8.76955 5.67931 8.12825 5.67931Z" fill="#21695C"/>
<path d="M10.6828 7.074C10.6828 6.30373 11.2027 5.67931 11.844 5.67931C12.4853 5.67931 13.0052 6.30373 13.0052 7.074C13.0052 7.84426 12.4853 8.46868 11.844 8.46868C11.2027 8.46868 10.6828 7.84426 10.6828 7.074Z" fill="#21695C"/>
<path fill-rule="evenodd" clip-rule="evenodd" d="M11.9376 0.20409C9.43484 -0.0522646 6.91901 -0.0671419 4.41428 0.159601L4.23478 0.175851C1.84619 0.392081 0 2.78294 0 5.66001V15.1632C0 15.4576 0.128813 15.7304 0.339202 15.8814C0.549591 16.0325 0.810601 16.0397 1.02652 15.9003L4.65942 13.5553C4.82841 13.4462 5.01726 13.3891 5.2091 13.3891H13.5477C14.5993 13.3891 15.5006 12.4861 15.6891 11.2434C16.0711 8.72489 16.1013 6.14754 15.7784 3.61712L15.6832 2.87144C15.51 1.51385 14.5853 0.475293 13.4459 0.358589L11.9376 0.20409ZM4.51901 1.82849C6.94945 1.60847 9.39067 1.62291 11.8192 1.87166L13.3275 2.02616C13.8258 2.0772 14.2301 2.53135 14.3059 3.12501L14.4011 3.8707C14.7005 6.21744 14.6726 8.6077 14.3182 10.9434C14.2504 11.3906 13.9261 11.7155 13.5477 11.7155H5.2091C4.78705 11.7155 4.37157 11.8411 3.9998 12.0811L1.39341 13.7635V5.66001C1.39341 3.65847 2.67779 1.99517 4.33951 1.84474L4.51901 1.82849Z" fill="#21695C"/>
</svg>
