<svg width="26" height="24" viewBox="0 0 26 24" fill="none" xmlns="http://www.w3.org/2000/svg">
<path d="M13.5484 21.6774C12.907 21.6774 12.3871 22.1973 12.3871 22.8387C12.3871 23.4801 12.907 24 13.5484 24H22.8387C24.3352 24 25.5484 22.7868 25.5484 21.2903V2.70968C25.5484 1.21316 24.3352 0 22.8387 0H13.5484C12.907 0 12.3871 0.519929 12.3871 1.16129C12.3871 1.80265 12.907 2.32258 13.5484 2.32258L22.8387 2.32258C23.0525 2.32258 23.2258 2.49589 23.2258 2.70968L23.2258 21.2903C23.2258 21.5041 23.0525 21.6774 22.8387 21.6774H13.5484Z" fill="white"/>
<path fill-rule="evenodd" clip-rule="evenodd" d="M17.4241 15.6623C18.4931 15.6623 19.3596 14.7957 19.3596 13.7268V10.2576C19.3596 9.18867 18.4931 8.32212 17.4241 8.32212H10.282C10.2719 8.20843 10.2614 8.09476 10.2503 7.98114L10.1667 7.12041C10.039 5.80721 8.64455 5.02077 7.45473 5.59098C4.92431 6.80367 2.63357 8.46315 0.692679 10.4896L0.53908 10.65C-0.179693 11.4004 -0.179693 12.5839 0.539079 13.3344L0.692679 13.4948C2.63357 15.5212 4.92432 17.1807 7.45473 18.3934C8.64454 18.9636 10.039 18.1772 10.1667 16.864L10.2503 16.0032C10.2614 15.8896 10.2719 15.776 10.282 15.6623H17.4241ZM9.20533 13.3397C8.79289 13.3397 8.42827 13.5554 8.22206 13.8828C8.12164 14.0423 8.05879 14.2282 8.04629 14.4287C8.0182 14.8791 7.98231 15.3291 7.93863 15.7786L7.91435 16.0284C6.31014 15.2017 4.82038 14.1721 3.48136 12.9661C3.13397 12.6532 2.79673 12.3284 2.47026 11.9922C4.0551 10.3601 5.89396 8.9972 7.91435 7.95599L7.93863 8.20581C7.98231 8.65528 8.0182 9.10531 8.04629 9.5557C8.08447 10.1678 8.59204 10.6447 9.20533 10.6447H17.037V13.3397H9.20533Z" fill="white"/>
</svg>
